<?xml version="1.0" encoding="UTF-8" standalone="no"?><!DOCTYPE svg PUBLIC "-//W3C//DTD SVG 1.1//EN" "http://www.w3.org/Graphics/SVG/1.1/DTD/svg11.dtd"><svg width="100%" height="100%" viewBox="0 0 1200 1200" version="1.1" xmlns="http://www.w3.org/2000/svg" xmlns:xlink="http://www.w3.org/1999/xlink" xml:space="preserve" xmlns:serif="http://www.serif.com/" style="fill-rule:evenodd;clip-rule:evenodd;stroke-linejoin:round;stroke-miterlimit:2;"><path d="M750,900C729.375,900 712.5,883.125 712.5,862.5C712.5,841.875 729.375,825 750,825C915.37,825 1050,690.37 1050,525C1050,359.63 915.37,225 750,225C729.375,225 712.5,208.125 712.5,187.5C712.5,166.875 729.375,150 750,150C956.63,150 1125,318.37 1125,525C1125,731.63 956.63,900 750,900Z" style="fill:white;fill-rule:nonzero;"/><path d="M750,675C605.26,675 487.5,557.25 487.5,412.5C487.5,267.75 605.25,150 750,150C770.625,150 787.5,166.875 787.5,187.5C787.5,208.125 770.625,225 750,225C646.5,225 562.5,309 562.5,412.5C562.5,516 646.5,600 750,600C770.625,600 787.5,616.875 787.5,637.5C787.5,658.125 770.625,675 750,675Z" style="fill:white;fill-rule:nonzero;"/><path d="M750,675C729.375,675 712.5,658.125 712.5,637.5C712.5,616.875 729.375,600 750,600C811.875,600 862.5,549.375 862.5,487.5C862.5,425.625 811.875,375 750,375C729.375,375 712.5,358.125 712.5,337.5C712.5,316.875 729.375,300 750,300C853.5,300 937.5,384 937.5,487.5C937.5,591 853.5,675 750,675Z" style="fill:white;fill-rule:nonzero;"/><path d="M750,0C626.63,0 507.37,51.375 422.63,141C408.38,156 409.13,179.625 424.13,193.875C439.13,208.125 462.755,207.375 477.005,192.375C708.005,-52.885 1124.63,110.25 1124.63,449.635C1124.63,656.265 956.265,824.635 749.635,824.635C486.375,824.635 304.135,558.765 400.135,313.135C407.635,294.01 398.26,272.26 378.76,264.385C359.26,256.885 337.885,266.26 330.01,285.76C282.385,407.63 288.385,551.26 361.135,675.76C253.515,685.51 188.635,803.26 245.635,900.02L10.895,1135.89C-3.73,1150.52 -3.73,1174.14 10.895,1188.77C25.52,1203.39 49.145,1203.39 63.77,1188.77L298.9,953.635C395.65,1010.63 513.77,946.135 523.16,838.135C822.42,1013.26 1199.66,795.76 1199.66,450.005C1199.66,201.745 997.92,0.005 749.66,0.005L750,0ZM375,900C334.125,900 300,866.625 300,825C300,757.875 381,725.25 427.87,772.125C474.74,819 441.37,899.995 374.995,899.995L375,900Z" style="fill:white;fill-rule:nonzero;"/></svg>