<?xml version="1.0" encoding="UTF-8"?>
<svg width="1200pt" height="1200pt" version="1.1" viewBox="0 0 1200 1200" xmlns="http://www.w3.org/2000/svg">
 <path d="m600 25.781c-317.13 0-574.22 257.09-574.22 574.22s257.09 574.22 574.22 574.22 574.22-257.09 574.22-574.22-257.09-574.22-574.22-574.22zm389.48 574.22c0 27.969-11.109 54.797-30.887 74.574-19.777 19.777-46.605 30.891-74.574 30.891h-178.56v178.56c0 37.676-20.102 72.492-52.734 91.332-32.629 18.84-72.832 18.84-105.46 0-32.633-18.84-52.734-53.656-52.734-91.332v-178.56h-178.56c-27.969 0-54.793-11.113-74.574-30.891-19.777-19.777-30.887-46.605-30.887-74.574s11.109-54.797 30.887-74.574c19.781-19.777 46.605-30.891 74.574-30.891h178.56v-178.56c0-37.676 20.102-72.492 52.734-91.332 32.629-18.84 72.832-18.84 105.46 0 32.633 18.84 52.734 53.656 52.734 91.332v178.56h178.56c27.969 0 54.797 11.113 74.574 30.891 19.777 19.777 30.887 46.605 30.887 74.574z"/>
</svg>
