<?xml version="1.0" encoding="UTF-8"?>
<svg width="1200pt" height="1200pt" version="1.1" viewBox="0 0 1200 1200" xmlns="http://www.w3.org/2000/svg">
 <path d="m718.5 60.375c-19.352 0.47656-38.258 10.48-48.375 28.125l-408.38 712.5c-2.6914 4.8359-4.2305 10.223-4.5 15.75l-17.25 285c-0.56641 8.9688 2.2383 17.828 7.8711 24.832 5.6328 7.0078 13.68 11.652 22.562 13.023 8.8828 1.3711 17.957-0.625 25.441-5.6055l237-157.5c4.625-3.0781 8.4766-7.1836 11.25-12l408.38-712.12c15.418-26.887 5.875-62.375-21-78l-183.38-106.5c-6.7188-3.9062-14.012-6.2539-21.375-7.125-2.7617-0.32812-5.4844-0.44141-8.25-0.375zm6.75 77.625 157.5 91.125-383.25 667.88-157.5-91.125 299.25-521.25 79.125 46.125c8.2539 4.8242 18.09 6.1719 27.336 3.7461 9.25-2.4258 17.156-8.4258 21.98-16.684 4.8242-8.2539 6.168-18.086 3.7422-27.336-2.4258-9.2461-8.4297-17.152-16.684-21.977l-79.875-46.5zm-399.75 741.38 119.25 69-128.62 85.5z"/>
</svg>
