<?xml version="1.0" encoding="UTF-8" standalone="no"?>
<!DOCTYPE svg PUBLIC "-//W3C//DTD SVG 1.1//EN" "http://www.w3.org/Graphics/SVG/1.1/DTD/svg11.dtd">
<svg width="100%" height="100%" viewBox="0 0 1200 1200" version="1.1" xmlns="http://www.w3.org/2000/svg"
     xml:space="preserve"
     style="fill-rule:evenodd;clip-rule:evenodd;stroke-linejoin:round;stroke-miterlimit:2;">
    <g transform="matrix(1.33826,0,0,1.33826,-202.957,-202.959)">
        <path d="M352.2,783.89C352.2,763.175 368.989,746.39 389.7,746.39L656.68,746.39C677.387,746.39 694.18,763.175 694.18,783.89C694.18,804.601 677.387,821.39 656.68,821.39L389.7,821.39C368.989,821.39 352.2,804.601 352.2,783.89Z" style="fill:white;fill-rule:nonzero;"/>
    </g>
    <g transform="matrix(1.33826,0,0,1.33826,-202.957,-202.959)">
        <path d="M389.7,604.36C368.989,604.36 352.2,621.145 352.2,641.86C352.2,662.571 368.989,679.36 389.7,679.36L539.7,679.36C560.411,679.36 577.2,662.571 577.2,641.86C577.2,621.145 560.411,604.36 539.7,604.36L389.7,604.36Z" style="fill:white;fill-rule:nonzero;"/>
    </g>
    <g transform="matrix(1.33826,0,0,1.33826,-202.957,-202.959)">
        <path d="M425,187.5C445.711,187.5 462.5,204.289 462.5,225L462.5,237.672C481.176,237.5 501.078,237.5 522.254,237.5L677.744,237.5C698.92,237.5 718.822,237.5 737.498,237.672L737.498,225C737.498,204.289 754.287,187.5 774.998,187.5C795.709,187.5 812.498,204.289 812.498,225L812.498,240.137C823.838,240.938 834.529,241.973 844.588,243.325C889.592,249.379 927.483,262.321 957.588,292.419C987.682,322.513 1000.63,360.407 1006.68,405.419C1012.5,448.767 1012.5,503.88 1012.5,572.259L1012.5,726.799C1012.5,772.01 1012.5,808.475 1009.84,837.889C1007.09,868.205 1001.27,894.694 987.381,918.76C970.928,947.264 947.256,970.936 918.752,987.389C894.693,1001.28 868.201,1007.1 837.881,1009.85C808.467,1012.51 772.002,1012.51 726.791,1012.51L522.251,1012.51C453.876,1012.51 398.761,1012.51 355.411,1006.69C310.403,1000.63 272.509,987.689 242.411,957.595C212.313,927.493 199.372,889.603 193.317,844.595C187.489,801.243 187.493,746.13 187.493,677.755L187.493,572.265C187.493,503.886 187.489,448.775 193.317,405.425C199.372,360.417 212.313,322.523 242.411,292.425C272.505,262.327 310.399,249.386 355.411,243.331C365.466,241.98 376.157,240.945 387.497,240.144L387.497,225.007C387.497,204.296 404.286,187.507 424.997,187.507L425,187.5ZM737.5,312.68L737.5,324.996C737.5,345.707 754.289,362.496 775,362.496C795.711,362.496 812.5,345.707 812.5,324.996L812.5,315.332C820.32,315.957 827.664,316.722 834.594,317.652C871.285,322.586 890.711,331.609 904.551,345.445C918.391,359.285 927.41,378.715 932.344,415.402C933.274,422.332 934.039,429.679 934.664,437.496L265.334,437.496C265.959,429.68 266.725,422.332 267.655,415.402C272.588,378.714 281.612,359.285 295.448,345.445C309.288,331.609 328.718,322.586 365.405,317.652C372.334,316.723 379.682,315.957 387.499,315.332L387.499,324.996C387.499,345.707 404.288,362.496 424.999,362.496C445.71,362.496 462.499,345.707 462.499,324.996L462.499,312.68C481.319,312.504 502.05,312.496 524.999,312.496L674.999,312.496C697.948,312.496 718.679,312.504 737.499,312.68L737.5,312.68ZM262.68,512.5C262.504,531.32 262.496,552.051 262.496,575L262.496,675C262.496,746.77 262.575,796.82 267.653,834.59C272.586,871.281 281.61,890.707 295.446,904.547C309.286,918.387 328.716,927.406 365.403,932.34C403.169,937.418 453.227,937.496 524.993,937.496L724.993,937.496C772.415,937.496 805.473,937.461 831.103,935.137C856.22,932.86 870.498,928.625 881.244,922.426C898.346,912.551 912.549,898.348 922.424,881.246C928.623,870.5 932.858,856.223 935.135,831.105C937.459,805.476 937.494,772.417 937.494,724.995L937.494,574.995C937.494,552.046 937.482,531.315 937.31,512.495L262.68,512.5Z" style="fill:white;"/>
    </g>
</svg>
