<?xml version="1.0" encoding="UTF-8" standalone="no"?><!DOCTYPE svg PUBLIC "-//W3C//DTD SVG 1.1//EN" "http://www.w3.org/Graphics/SVG/1.1/DTD/svg11.dtd"><svg width="100%" height="100%" viewBox="0 0 1200 1200" version="1.1" xmlns="http://www.w3.org/2000/svg" xmlns:xlink="http://www.w3.org/1999/xlink" xml:space="preserve" xmlns:serif="http://www.serif.com/" style="fill-rule:evenodd;clip-rule:evenodd;stroke-linejoin:round;stroke-miterlimit:2;"><path d="M918.74,937.5L281.24,937.5C122.61,937.5 59.61,797.63 162.74,724.87C179.615,712.87 203.24,716.995 214.865,733.87C226.865,750.745 222.74,774.37 205.865,785.995C154.865,821.995 219.365,862.12 280.865,862.12L918.365,862.12C980.24,862.12 1044.37,821.62 993.365,785.995C976.49,773.995 972.365,750.745 984.365,733.87C996.365,716.995 1019.62,712.87 1036.49,724.87C1140.74,798.37 1075.12,937.5 917.99,937.5L918.74,937.5Z" style="fill:white;fill-rule:nonzero;"/><path d="M112.5,655.13L112.5,600.005C112.5,579.38 129.375,562.505 150,562.505L1050,562.505C1070.62,562.505 1087.5,579.38 1087.5,600.005L1087.5,655.13C1087.5,762.01 953.24,822.76 853.5,765.75C836.625,756.375 814.125,754.875 801,763.125C749.625,795 675.37,795 624,763.125C610.875,754.875 589.125,754.875 576,763.125C524.625,795 450.37,795 399,763.125C385.875,754.875 363.375,756 346.5,765.75C247.5,822.375 112.5,762.75 112.5,655.13ZM187.5,637.505L187.5,655.13C187.5,701.63 258,730.13 309.37,700.88C350.245,677.63 401.995,677.255 438.37,699.38C465.745,716.255 509.245,716.255 536.62,699.38C574.12,676.13 626.245,676.13 663.36,699.38C690.735,716.255 734.235,716.255 761.61,699.38C797.985,676.88 850.11,677.255 890.61,700.88C940.86,729.755 1012.48,702.755 1012.48,655.13L1012.48,637.505L187.5,637.505Z" style="fill:white;fill-rule:nonzero;"/><path d="M975,1162.5L487.5,1162.5C466.875,1162.5 450,1145.62 450,1125C450,1104.38 466.875,1087.5 487.5,1087.5L975,1087.5C1086.38,1087.5 1122,937.5 1050,937.5L150,937.5C79.125,937.5 112.875,1087.5 225,1087.5L337.5,1087.5C358.125,1087.5 375,1104.38 375,1125C375,1145.62 358.125,1162.5 337.5,1162.5L225,1162.5C121.5,1162.5 37.5,1078.5 37.5,975C37.5,913.125 88.125,862.5 150,862.5L1050,862.5C1111.88,862.5 1162.5,913.125 1162.5,975C1162.5,1078.5 1078.5,1162.5 975,1162.5Z" style="fill:white;fill-rule:nonzero;"/><path d="M1050,637.5L150,637.5C88.125,637.5 37.5,586.875 37.5,525C37.5,255 255,37.5 525,37.5L675,37.5C943.87,37.5 1162.5,256.13 1162.5,525C1162.5,586.875 1111.88,637.5 1050,637.5ZM525,112.5C296.63,112.5 112.5,296.63 112.5,525C112.5,545.625 129.375,562.5 150,562.5L1050,562.5C1070.62,562.5 1087.5,545.625 1087.5,525C1087.5,297.37 902.63,112.5 675,112.5L525,112.5Z" style="fill:white;fill-rule:nonzero;"/><path d="M263.26,450C242.635,450 225.76,433.125 225.76,412.5C225.76,401.625 234.01,375 263.26,375C283.885,375 300.76,391.875 300.76,412.5C300.76,433.125 283.885,450 263.26,450Z" style="fill:white;fill-rule:nonzero;"/><path d="M488.26,450C467.635,450 450.76,433.125 450.76,412.5C450.76,401.625 459.01,375 488.26,375C508.885,375 525.76,391.875 525.76,412.5C525.76,433.125 508.885,450 488.26,450Z" style="fill:white;fill-rule:nonzero;"/><path d="M713.26,450C692.635,450 675.76,433.125 675.76,412.5C675.76,401.625 684.01,375 713.26,375C733.885,375 750.76,391.875 750.76,412.5C750.76,433.125 733.885,450 713.26,450Z" style="fill:white;fill-rule:nonzero;"/><path d="M938.26,450C917.635,450 900.76,433.125 900.76,412.5C900.76,401.625 909.01,375 938.26,375C958.885,375 975.76,391.875 975.76,412.5C975.76,433.125 958.885,450 938.26,450Z" style="fill:white;fill-rule:nonzero;"/><path d="M600.74,300C580.115,300 563.24,283.125 563.24,262.5C563.24,251.625 571.49,225 600.74,225C621.365,225 638.24,241.875 638.24,262.5C638.24,283.125 621.365,300 600.74,300Z" style="fill:white;fill-rule:nonzero;"/><path d="M375.74,300C355.115,300 338.24,283.125 338.24,262.5C338.24,251.625 346.49,225 375.74,225C396.365,225 413.24,241.875 413.24,262.5C413.24,283.125 396.365,300 375.74,300Z" style="fill:white;fill-rule:nonzero;"/><path d="M825.74,300C805.115,300 788.24,283.125 788.24,262.5C788.24,251.625 796.49,225 825.74,225C846.365,225 863.24,241.875 863.24,262.5C863.24,283.125 846.365,300 825.74,300Z" style="fill:white;fill-rule:nonzero;"/></svg>