<?xml version="1.0" encoding="UTF-8" standalone="no"?>
<!DOCTYPE svg PUBLIC "-//W3C//DTD SVG 1.1//EN" "http://www.w3.org/Graphics/SVG/1.1/DTD/svg11.dtd">
<svg width="100%" height="100%" viewBox="0 0 1200 1200" version="1.1" xmlns="http://www.w3.org/2000/svg"
     xml:space="preserve" style="fill-rule:evenodd;clip-rule:evenodd;stroke-linejoin:round;stroke-miterlimit:2;">
    <path d="M600,75C744.89,75 862.5,192.61 862.5,337.5C862.5,482.39 744.89,600 600,600C455.11,600 337.5,482.39 337.5,337.5C337.5,192.61 455.11,75 600,75ZM787.5,675C932.48,675 1050,792.52 1050,937.5L1050,1012.5C1050,1042.36 1038.14,1070.91 1017.09,1092.09C995.906,1113.14 967.36,1125 937.5,1125L262.5,1125C232.641,1125 204.094,1113.14 182.906,1092.09C161.859,1070.91 150,1042.36 150,1012.5L150,937.5C150,792.52 267.52,675 412.5,675L787.5,675Z"/>
</svg>
