<?xml version="1.0" encoding="UTF-8" standalone="no"?>
<!DOCTYPE svg PUBLIC "-//W3C//DTD SVG 1.1//EN" "http://www.w3.org/Graphics/SVG/1.1/DTD/svg11.dtd">
<svg width="100%" height="100%" viewBox="0 0 1200 1200" version="1.1" xmlns="http://www.w3.org/2000/svg"
     xml:space="preserve"
     style="fill-rule:evenodd;clip-rule:evenodd;stroke-linejoin:round;stroke-miterlimit:2;">
    <g transform="matrix(1.26012,0,0,1.26012,-156.072,-156.072)">
        <path d="M950,600C950,793.3 793.3,950 600,950C406.7,950 250,793.3 250,600C250,406.7 406.7,250 600,250C793.3,250 950,406.7 950,600ZM1050,600C1050,848.53 848.53,1050 600,1050C351.47,1050 150,848.53 150,600C150,351.47 351.47,150 600,150C848.53,150 1050,351.47 1050,600ZM650,400C650,427.613 627.613,450 600,450C572.387,450 550,427.613 550,400C550,372.387 572.387,350 600,350C627.613,350 650,372.387 650,400ZM600,500C627.613,500 650,522.387 650,550L650,800C650,827.613 627.613,850 600,850C572.387,850 550,827.613 550,800L550,550C550,522.387 572.387,500 600,500Z" style="fill:white;"/>
    </g>
</svg>
