<?xml version="1.0" encoding="UTF-8"?>
<svg width="1200pt" height="1200pt" version="1.1" viewBox="0 0 1200 1200" xmlns="http://www.w3.org/2000/svg">
 <g>
  <path d="m1057.2 212.4c0-120-230.4-182.4-457.2-182.4s-457.2 62.398-457.2 182.4c0 32.398 16.801 60 44.398 82.801l52.801 724.8c2.3984 103.2 187.2 150 360 150s357.6-46.801 360-150l52.801-723.6c27.598-24 44.398-51.598 44.398-84zm-457.2-102c234 0 376.8 66 376.8 103.2 0 37.203-142.8 102-376.8 102s-376.8-66-376.8-103.2c0-37.203 142.8-102 376.8-102zm279.6 904.8v2.3984c-1.1992 16.801-91.199 72-279.6 72-188.4 0-278.4-55.199-279.6-72l-49.199-674.4c87.602 34.801 208.8 52.801 328.8 52.801s241.2-18 328.8-52.801z"/>
  <path d="m745.2 990h2.3984c19.199 0 36-15.602 37.199-34.801l26.398-446.4c1.1992-20.398-14.398-38.398-34.801-39.602-20.398-1.1992-38.398 14.398-39.602 34.801l-26.398 446.4c-1.1953 21.602 14.406 38.402 34.805 39.602z"/>
  <path d="m562.8 507.6v446.4c0 20.398 16.801 37.199 37.199 37.199s37.199-16.801 37.199-37.199v-446.4c0-20.398-16.801-37.199-37.199-37.199-20.398-1.2031-37.199 15.598-37.199 37.199z"/>
  <path d="m423.6 469.2c-20.398 1.1992-36 19.199-34.801 39.602l26.398 446.4c1.1992 20.398 18 34.801 37.199 34.801h2.3984c20.398-1.1992 36-19.199 34.801-39.602l-26.398-446.4c-1.1992-19.199-19.199-36-39.598-34.801z"/>
 </g>
</svg>
