<?xml version="1.0" encoding="UTF-8" standalone="no"?><!DOCTYPE svg PUBLIC "-//W3C//DTD SVG 1.1//EN" "http://www.w3.org/Graphics/SVG/1.1/DTD/svg11.dtd"><svg width="100%" height="100%" viewBox="0 0 1200 1200" version="1.1" xmlns="http://www.w3.org/2000/svg" xmlns:xlink="http://www.w3.org/1999/xlink" xml:space="preserve" xmlns:serif="http://www.serif.com/" style="fill-rule:evenodd;clip-rule:evenodd;stroke-linejoin:round;stroke-miterlimit:2;"><path d="M562.5,1012.5L112.5,1012.5C91.875,1012.5 75,995.625 75,975C75,954.375 91.875,937.5 112.5,937.5L562.5,937.5C583.125,937.5 600,954.375 600,975C600,995.625 583.125,1012.5 562.5,1012.5Z" style="fill:white;fill-rule:nonzero;"/><path d="M562.52,750L412.5,750C391.875,750 375,733.125 375,712.5C375,691.875 358.125,675 337.5,675C316.875,675 300,691.875 300,712.5C300,733.125 283.125,750 262.5,750L112.5,750C91.875,750 75,733.125 75,712.5C75,691.875 91.875,675 112.5,675L231.38,675C266.63,575.25 408.01,575.25 443.64,675L562.52,675C583.145,675 600.02,691.875 600.02,712.5C600.02,733.125 583.145,750 562.52,750Z" style="fill:white;fill-rule:nonzero;"/><path d="M1075.1,900L724.84,900C704.215,900 687.34,883.125 687.34,862.5C687.34,841.875 704.215,825 724.84,825L1075.1,825C1095.73,825 1112.6,841.875 1112.6,862.5C1112.6,883.125 1095.73,900 1075.1,900Z" style="fill:white;fill-rule:nonzero;"/><path d="M562.5,825C583.125,825 600,808.125 600,787.5C600,657.37 609,567.37 538.5,449.63C505.125,394.13 487.5,330.75 487.5,265.89L487.5,37.52C487.5,16.895 470.625,0.02 450,0.02L225,0.02C204.375,0.02 187.5,16.895 187.5,37.52C187.5,277.15 198.75,345.78 136.5,449.65C96.375,516.775 75,593.65 75,672.02L75,1087.52C75,1149.39 125.625,1200.02 187.5,1200.02L487.5,1200.02C549.375,1200.02 600,1149.39 600,1087.52L600,937.52C600,916.895 583.125,900.02 562.5,900.02C541.875,900.02 525,916.895 525,937.52L525,1087.52C525,1108.14 508.125,1125.02 487.5,1125.02L187.5,1125.02C166.875,1125.02 150,1108.14 150,1087.52L150,672.02C150,607.145 167.625,543.76 201,488.28C241.125,421.155 262.5,344.28 262.5,265.91L262.5,225.41L412.5,225.41L412.5,265.91C412.5,344.285 433.875,421.17 474,488.28C534.375,589.16 525,668.28 525,787.91C525,808.535 541.875,825.41 562.5,825.41L562.5,825ZM262.5,150L262.5,75L412.5,75L412.5,150L262.5,150Z" style="fill:white;fill-rule:nonzero;"/><path d="M1050,1200L750,1200C730.5,1200 714.375,1185 712.5,1165.5L675,715.5C673.125,693.75 690.375,675 712.5,675L1087.5,675C1109.62,675 1126.88,693.75 1125,715.5L1087.5,1165.5C1086,1185 1069.5,1200 1050,1200ZM784.12,1125L1015.5,1125L1046.62,750L752.995,750L784.12,1125Z" style="fill:white;fill-rule:nonzero;"/></svg>